<?xml version="1.0" encoding="utf-8"?>
<!-- Generator: Adobe Illustrator 16.0.0, SVG Export Plug-In . SVG Version: 6.00 Build 0)  -->
<!DOCTYPE svg PUBLIC "-//W3C//DTD SVG 1.1//EN" "http://www.w3.org/Graphics/SVG/1.1/DTD/svg11.dtd">
<svg version="1.1" id="Layer_1" xmlns="http://www.w3.org/2000/svg" xmlns:xlink="http://www.w3.org/1999/xlink" x="0px" y="0px"
	 width="1080px" height="720px" viewBox="0 0 1080 720" enable-background="new 0 0 1080 720" xml:space="preserve">
<g>
	<path fill-rule="evenodd" clip-rule="evenodd" fill="#FFFFFF" d="M543.441,339.84c0.998-5.468,0.865-18.508,0.865-18.508
		s-5.059,11.881-7.383,17.64C540.714,339.201,540.582,340.205,543.441,339.84z"/>
	<path fill-rule="evenodd" clip-rule="evenodd" fill="#FFFFFF" d="M540,185.619c-96.308,0-174.381,78.073-174.381,174.381
		c0,96.311,78.073,174.381,174.381,174.381c96.311,0,174.381-78.07,174.381-174.381C714.381,263.691,636.311,185.619,540,185.619z
		 M545.646,297.077c3.195-1.162,5.48,0.889,7.053,2.646c-0.635,23.599-0.686,42.479-4.408,65.244
		c-0.744,4.555-1.711,12.75-4.408,13.668c-5.532,1.883-5.821-5.93-4.409-11.463c0.293-1.137,1.347-2.219,1.762-3.525
		c1.783-5.592,2.002-17.439,2.002-17.439l-8.839-1.266c0,0-3.741,8.45-6.387,13.854c-2.842,5.809-5.431,16.547-12.413,11.204
		C515.76,363.234,536.465,324.393,545.646,297.077z M547.373,422.77c-1.414,3.346-7.466,3.66-7.084-1.65
		C541.943,417.951,547.195,418.684,547.373,422.77z M534.896,420.584c-2.637,2.539-6.53,1.844-7.04-1.949
		C530.243,416.346,535.43,414.76,534.896,420.584z M486.573,313.389c-0.211,16.844-8.817,51.578-8.817,51.578
		s2.938,0.398,3.835,1.906c0.538,0.904-0.364,2.027-1.11,4.207c-3.992,2.133-20.961-0.812-20.358-5.674
		c0.399-3.205,4.929-2.605,8.816-2.199c5.271-15.299,9.473-31.44,8.817-48.495c-1.052-1.593-5.072-0.211-6.078-1.854
		c0-1.177,0.609-4.761,0.609-4.761s18.801-5.953,20.899,0C494.254,311.135,489.89,312.74,486.573,313.389z M559.318,433.26
		c-0.848,1.221-2.098,2.135-3.176,3.129c-4.393,4.047-8.605,7.836-14.092,10.424c-5.363,2.527-11.641,3.609-17.394,1.797
		c-4.167-1.307-7.396-4.486-9.657-8.137c-1.248-2.014-2.232-4.189-3.008-6.43c-0.381-1.094-1.027-2.49-1.073-3.654
		c-0.036-0.904,0.909-2.305,1.779-2.592c0.046-0.016,0.095-0.027,0.146-0.033c0.893-0.164,2.276,0.621,3.096,1.082
		c1.812,1.018,3.184,2.51,4.289,4.256c2.165,3.412,3.586,6.973,7.666,8.5c3.972,1.498,10.603,0.549,14.547-1.617
		c1.785-0.977,3.363-2.6,4.773-4.041c2.455-2.5,5.072-6.506,8.477-7.773C559.529,426.734,561.504,430.098,559.318,433.26z
		 M623.234,306.779c-4.145,17.361-8.684,38.075-11.902,55.545c-1.191,6.467-2.275,11.096-2.645,16.752
		c-0.303,4.6,0.684,8.984-3.086,9.699c-2.309,0.438-3.287-1.672-5.289-2.207c0.178-11.691,4.648-24.441,7.051-37.031
		c1.076-5.614,9.238-47.187,9.238-47.187s-13.092,17.68-21.578,46.306c-1.516,5.102-3.633,16.953-11.463,14.107
		c-0.6-1.314-0.969-2.855-2.205-3.527c1.475-10.422,2.428-20.495,2.98-31.171c-4.742,6.696-16.549,39.452-18.854,47.924
		c-2.66,0.926-5.305-0.084-7.051-1.32c-1.619-2.654,0.662-4.604,1.766-7.498c4.295-11.323,7.842-20.547,14.104-34.826
		c2.201-5.021,4.555-11.094,7.055-17.634c2.543-6.66,4.662-23.311,13.225-15.431c0.652,11.478-3.002,37.082-2.207,35.216
		c5.539-13.002,16.062-37.879,27.334-47.118c1.322-1.083,4.357-1.078,6.172,0.881C627.6,294,624.738,300.482,623.234,306.779z"/>
</g>
</svg>
