<?xml version="1.0" encoding="utf-8"?>
<!-- Generator: Adobe Illustrator 16.0.0, SVG Export Plug-In . SVG Version: 6.00 Build 0)  -->
<!DOCTYPE svg PUBLIC "-//W3C//DTD SVG 1.1//EN" "http://www.w3.org/Graphics/SVG/1.1/DTD/svg11.dtd">
<svg version="1.1" id="Layer_1" xmlns="http://www.w3.org/2000/svg" xmlns:xlink="http://www.w3.org/1999/xlink" x="0px" y="0px"
	 width="1080px" height="720px" viewBox="0 0 1080 720" enable-background="new 0 0 1080 720" xml:space="preserve">
<g>
	<path fill="#FFFFFF" d="M721.266,375.021c2.897,6.463,9.212,8.693,14.71,8.693c8.618,0,14.711-4.607,14.711-11.145
		c0-7.355-5.721-9.658-13.819-11.441c-4.755-1.041-8.544-1.932-8.544-5.201c0-2.674,2.675-5.201,8.099-5.201
		c3.565,0,7.28,1.857,9.063,5.424l5.275-3.343c-3.046-5.721-8.47-8.024-14.339-8.024c-8.916,0-14.488,5.052-14.488,11.144
		c0,7.281,6.612,9.732,13.894,11.145c4.755,0.891,8.544,2.154,8.544,5.498c0,3.193-3.418,5.199-8.396,5.199
		c-3.641,0-7.578-1.707-9.436-6.092L721.266,375.021z M695.483,377.547c-7.43,0-12.854-5.869-12.854-13.299
		c0-7.429,5.424-13.298,12.854-13.298s12.853,5.869,12.853,13.298C708.336,371.678,702.913,377.547,695.483,377.547z
		 M695.483,344.784c-10.773,0-19.466,8.692-19.466,19.464c0,10.773,8.692,19.467,19.466,19.467c10.772,0,19.465-8.693,19.465-19.467
		C714.948,353.476,706.256,344.784,695.483,344.784z M652.763,372.496c0,7.875,3.492,10.771,10.253,10.771
		c2.377,0,4.531-0.223,6.687-0.668v-5.572c-2.972,0.371-3.641,0.371-6.315,0.371c-3.12,0-4.234-1.635-4.234-4.531v-21.545h10.178
		v-5.572h-10.178V335.2h-6.39v10.55h-7.355v5.572h7.355V372.496z M631.067,382.896h6.538V360.98c0-9.584-3.789-16.196-14.488-16.196
		c-4.605,0-9.063,1.857-11.812,5.869v-4.903h-6.167v37.147h6.39v-17.311c0-3.344,0.372-7.578,2.154-10.401
		c1.932-2.972,5.201-4.458,8.693-4.458c6.687,0,8.692,4.161,8.692,10.253V382.896z M587.232,365.141v2.674
		c0,5.127-5.052,9.732-11.145,9.732c-4.903,0-7.652-2.154-7.652-5.424c0-2.6,1.857-4.977,5.944-5.496L587.232,365.141z
		 M587.232,356.894c0,1.486-1.04,2.601-2.749,2.749l-11.219,1.04c-5.795,0.595-11.366,4.31-11.366,11.44
		c0,6.613,5.2,11.441,13.075,11.441c5.127,0,9.882-2.377,12.259-6.018v5.35h6.39v-24.22c0-8.618-4.903-13.893-15.453-13.893
		c-8.916,0-13.597,3.938-15.008,9.436l5.795,3.12c0.817-4.606,4.458-6.835,9.807-6.835c5.201,0,8.47,2.303,8.47,5.498V356.894z
		 M524.973,375.021c2.897,6.463,9.212,8.693,14.71,8.693c8.618,0,14.711-4.607,14.711-11.145c0-7.355-5.721-9.658-13.819-11.441
		c-4.755-1.041-8.544-1.932-8.544-5.201c0-2.674,2.675-5.201,8.099-5.201c3.565,0,7.28,1.857,9.063,5.424l5.275-3.343
		c-3.046-5.721-8.47-8.024-14.339-8.024c-8.916,0-14.488,5.052-14.488,11.144c0,7.281,6.612,9.732,13.894,11.145
		c4.755,0.891,8.544,2.154,8.544,5.498c0,3.193-3.418,5.199-8.396,5.199c-3.641,0-7.578-1.707-9.436-6.092L524.973,375.021z
		 M458.85,361.055c1.04-6.167,5.497-10.328,11.664-10.328c6.092,0,9.955,4.161,10.698,10.328H458.85z M482.252,371.752
		c-2.823,3.344-6.24,6.018-11.738,6.018c-6.39,0-11.813-4.309-12.11-11.59h29.792v-1.932c-0.074-10.995-6.983-19.464-17.682-19.464
		c-11.516,0-18.5,9.064-18.5,19.464c0,11.59,7.802,19.467,18.5,19.467c7.578,0,11.738-2.898,15.23-6.762L482.252,371.752z
		 M441.313,345.75l-11.887,28.752l-11.888-28.752h-6.983l16.345,37.147h5.052l16.345-37.147H441.313z M397.107,365.141v2.674
		c0,5.127-5.052,9.732-11.145,9.732c-4.903,0-7.652-2.154-7.652-5.424c0-2.6,1.857-4.977,5.944-5.496L397.107,365.141z
		 M397.107,356.894c0,1.486-1.04,2.601-2.749,2.749l-11.219,1.04c-5.795,0.595-11.366,4.31-11.366,11.44
		c0,6.613,5.2,11.441,13.075,11.441c5.127,0,9.882-2.377,12.259-6.018v5.35h6.39v-24.22c0-8.618-4.903-13.893-15.453-13.893
		c-8.916,0-13.597,3.938-15.008,9.436l5.795,3.12c0.817-4.606,4.458-6.835,9.807-6.835c5.201,0,8.47,2.303,8.47,5.498V356.894z
		 M343.465,377.621c-7.503,0-12.481-5.572-12.481-13.447c0-7.875,4.979-13.447,12.481-13.447c7.802,0,12.333,5.275,12.333,13.447
		C355.798,372.348,351.267,377.621,343.465,377.621z M342.797,344.784c-10.922,0-18.426,7.504-18.426,19.39
		c0,11.889,7.504,19.391,18.426,19.391c5.2,0,10.252-2.377,12.556-6.018v5.35h6.39v-52.006h-6.39v19.911
		C352.9,347.161,348.146,344.784,342.797,344.784z"/>
	<path fill="#FFFFFF" d="M260.38,254.58c-0.99,0-1.8,0.81-1.8,1.8v175.788c0,0.99,0.81,1.799,1.8,1.799h27.357c0.99,0,2.61,0,3.6,0
		h494.306c0.99,0,1.967,0,2.17,0c0.204,0,0.371-0.809,0.371-1.799V256.38c0-0.99-0.81-1.8-1.8-1.8H260.38z M779.667,261.296
		c0.99,0,1.8,0.81,1.8,1.8v20.64c0,0.99-0.81,1.8-1.8,1.8H296.086c-0.99,0-2.373-0.573-3.073-1.273l-21.693-21.693
		c-0.7-0.7-0.463-1.273,0.527-1.273H779.667z M267.097,427.25c-0.99,0-1.8-0.809-1.8-1.799V267.843c0-0.99,0.573-1.227,1.273-0.527
		l21.694,21.694c0.7,0.7,1.273,2.083,1.273,3.073v133.368c0,0.99-0.81,1.799-1.8,1.799H267.097z M298.054,427.25
		c-0.99,0-1.8-0.809-1.8-1.799v-131.4c0-0.99,0.81-1.8,1.8-1.8h480.872c0.99,0,1.8,0.81,1.8,1.8v131.4c0,0.99-0.81,1.799-1.8,1.799
		H298.054z"/>
	<path fill="#FFFFFF" d="M821.495,222.273c-0.7-0.7-2.082-1.273-3.072-1.273H226.8c-0.99,0-1.8,0.81-1.8,1.8v241.872
		c0,0.99,0.573,2.373,1.273,3.072l32.11,32.111c0.7,0.699,2.083,1.271,3.073,1.271h592.088c0.99,0,1.8-0.809,1.8-1.799V257.922
		c0-0.99-0.572-2.373-1.272-3.073L821.495,222.273z M231.717,229.516c0-0.99,0.81-1.8,1.8-1.8h579.73c0.99,0,1.8,0.81,1.8,1.8
		v229.516c0,0.99-0.81,1.799-1.8,1.799h-579.73c-0.99,0-1.8-0.809-1.8-1.799V229.516z M264.237,494.41
		c-0.99,0-2.373-0.572-3.073-1.271l-24.318-24.318c-0.7-0.701-0.463-1.273,0.527-1.273h577.842c0.99,0,2.373,0.572,3.072,1.273
		l24.319,24.318c0.7,0.699,0.463,1.271-0.527,1.271H264.237z M848.627,487.863c0,0.99-0.572,1.227-1.272,0.527l-24.318-24.318
		c-0.7-0.701-1.272-2.082-1.272-3.072V233.838c0-0.99,0.572-1.227,1.272-0.527l24.318,24.32c0.7,0.7,1.272,2.083,1.272,3.073
		V487.863z"/>
</g>
</svg>
